<svg xmlns="http://www.w3.org/2000/svg" viewBox="0 0 29.98 38.68"><defs><style>.cls-1{fill:#333;}.cls-2{fill:#e6e6e6;}</style></defs><g id="图层_1" data-name="图层 1"><path class="cls-1" d="M30,0H3.88L0,11.13H12.64L8.37,21,3.88,31.32.69,38.68H25.92l3.95-11.13H18Z"/><path class="cls-2" d="M30,0H20.72L12.45,19c-1,2.27-2,3.18-3.13,2.7a2.8,2.8,0,0,1-1-.77L3.88,31.32A6.85,6.85,0,0,0,6.14,33a7.85,7.85,0,0,0,7.69-.88,15.21,15.21,0,0,0,4.48-4.55H18Z"/><path d="M29.87,27.55"/><path d="M30,0"/><path d="M29.87,27.55"/></g></svg>